HIERARCHY
ROOT Hips
{
	OFFSET 0.000000 83.214638 0.000000
	CHANNELS 6 Xposition Yposition Zposition Xrotation Yrotation Zrotation
	JOINT Pelvis
	{
		OFFSET 0.000000 0.000000 0.000000
		CHANNELS 3 Xrotation Yrotation Zrotation
		JOINT LeftUpLeg
		{
			OFFSET 8.479700 -4.795502 -0.379100
			CHANNELS 3 Xrotation Yrotation Zrotation
			JOINT LeftLeg
			{
				OFFSET 0.024144 -32.555107 0.112900
				CHANNELS 3 Xrotation Yrotation Zrotation
				JOINT LeftFoot
				{
					OFFSET -0.024144 -32.638630 -3.012600
					CHANNELS 3 Xrotation Yrotation Zrotation
					JOINT LeftToeBase
					{
						OFFSET 0.970200 -13.225400 11.864200
						CHANNELS 3 Xrotation Yrotation Zrotation
						End Site
						{
							OFFSET 0.000000 12.319262 0.000000
						}
					}
					JOINT LFootTongue
					{
						OFFSET 1.142400 -1.059800 6.665200
						CHANNELS 3 Xrotation Yrotation Zrotation
						End Site
						{
							OFFSET 0.000000 12.319262 0.000000
						}
					}
				}
				JOINT LeftPantLeg
				{
					OFFSET 0.918482 -16.533964 -2.284700
					CHANNELS 3 Xrotation Yrotation Zrotation
					End Site
					{
						OFFSET 0.350399 24.744368 0.000000
					}
				}
			}
		}
		JOINT RightUpLeg
		{
			OFFSET -8.479700 -4.795502 -0.379100
			CHANNELS 3 Xrotation Yrotation Zrotation
			JOINT RightLeg
			{
				OFFSET -0.023144 -32.555092 0.112900
				CHANNELS 3 Xrotation Yrotation Zrotation
				JOINT RightFoot
				{
					OFFSET 0.023144 -32.638641 -3.012700
					CHANNELS 3 Xrotation Yrotation Zrotation
					JOINT RightToeBase
					{
						OFFSET -0.970200 -13.225400 11.864200
						CHANNELS 3 Xrotation Yrotation Zrotation
						End Site
						{
							OFFSET 0.000000 12.319244 0.000000
						}
					}
					JOINT RFootTongue
					{
						OFFSET -1.142200 -1.059800 6.665200
						CHANNELS 3 Xrotation Yrotation Zrotation
						End Site
						{
							OFFSET 0.000000 12.319243 0.000000
						}
					}
				}
				JOINT RightPantLeg
				{
					OFFSET -0.919482 -16.533978 -2.284800
					CHANNELS 3 Xrotation Yrotation Zrotation
					End Site
					{
						OFFSET -0.350400 24.744419 0.000000
					}
				}
			}
		}
	}
	JOINT Spine
	{
		OFFSET 0.000000 7.722000 1.166200
		CHANNELS 3 Xrotation Yrotation Zrotation
		JOINT Spine1
		{
			OFFSET 0.000000 12.024101 0.248800
			CHANNELS 3 Xrotation Yrotation Zrotation
			JOINT Spine2
			{
				OFFSET 0.000000 11.502998 -0.491200
				CHANNELS 3 Xrotation Yrotation Zrotation
				JOINT Neck
				{
					OFFSET 0.000000 18.430702 -3.123100
					CHANNELS 3 Xrotation Yrotation Zrotation
					JOINT Head
					{
						OFFSET 0.000000 9.051102 1.034000
						CHANNELS 3 Xrotation Yrotation Zrotation
						JOINT HairB
						{
							OFFSET 0.208400 24.786102 24.822300
							CHANNELS 3 Xrotation Yrotation Zrotation
							End Site
							{
								OFFSET 0.000000 32.263779 0.000000
							}
						}
						JOINT HairA
						{
							OFFSET -7.081100 24.428299 23.196600
							CHANNELS 3 Xrotation Yrotation Zrotation
							End Site
							{
								OFFSET 0.000000 32.263779 0.000000
							}
						}
						JOINT Hat
						{
							OFFSET 16.728800 15.048294 -15.439601
							CHANNELS 3 Xrotation Yrotation Zrotation
							End Site
							{
								OFFSET 0.000000 32.263779 0.000000
							}
						}
					}
				}
				JOINT LeftShoulder
				{
					OFFSET 6.197800 13.665199 -4.064700
					CHANNELS 3 Xrotation Yrotation Zrotation
					JOINT LeftArm
					{
						OFFSET 7.778100 -0.187103 -1.709300
						CHANNELS 3 Xrotation Yrotation Zrotation
						JOINT LeftForeArm
						{
							OFFSET 22.049376 0.000000 0.000000
							CHANNELS 3 Xrotation Yrotation Zrotation
							JOINT LeftHand
							{
								OFFSET 23.009392 0.000000 0.000000
								CHANNELS 3 Xrotation Yrotation Zrotation
								JOINT LeftHandThumb1
								{
									OFFSET 3.507191 -2.063065 3.133727
									CHANNELS 3 Xrotation Yrotation Zrotation
									JOINT LeftHandThumb2
									{
										OFFSET 3.101337 -1.790558 1.790558
										CHANNELS 3 Xrotation Yrotation Zrotation
										JOINT LeftHandThumb3
										{
											OFFSET 3.058640 -1.765907 1.765906
											CHANNELS 3 Xrotation Yrotation Zrotation
											End Site
											{
												OFFSET -0.415260 3.926476 -0.049563
											}
										}
									}
								}
								JOINT LeftHandIndex1
								{
									OFFSET 11.334419 -0.901459 3.706815
									CHANNELS 3 Xrotation Yrotation Zrotation
									JOINT LeftHandIndex2
									{
										OFFSET 3.283112 0.000000 0.000000
										CHANNELS 3 Xrotation Yrotation Zrotation
										JOINT LeftHandIndex3
										{
											OFFSET 3.323853 0.000000 0.000000
											CHANNELS 3 Xrotation Yrotation Zrotation
											End Site
											{
												OFFSET -1.135597 3.097809 0.402452
											}
										}
									}
								}
								JOINT LeftHandMiddle1
								{
									OFFSET 11.335861 0.000000 0.000000
									CHANNELS 3 Xrotation Yrotation Zrotation
									JOINT LeftHandMiddle2
									{
										OFFSET 3.410492 0.000000 0.000000
										CHANNELS 3 Xrotation Yrotation Zrotation
										JOINT LeftHandMiddle3
										{
											OFFSET 3.312172 0.000000 0.000000
											CHANNELS 3 Xrotation Yrotation Zrotation
											End Site
											{
												OFFSET -1.150200 3.080154 0.400270
											}
										}
									}
								}
								JOINT LeftHandRing1
								{
									OFFSET 11.514786 -0.013176 -3.003090
									CHANNELS 3 Xrotation Yrotation Zrotation
									JOINT LeftHandRing2
									{
										OFFSET 3.053307 0.000000 0.000000
										CHANNELS 3 Xrotation Yrotation Zrotation
										JOINT LeftHandRing3
										{
											OFFSET 3.295807 0.000000 0.000000
											CHANNELS 3 Xrotation Yrotation Zrotation
											End Site
											{
												OFFSET -1.281006 3.013344 0.375733
											}
										}
									}
								}
								JOINT LeftHandPinky1
								{
									OFFSET 10.518692 -0.960396 -5.730441
									CHANNELS 3 Xrotation Yrotation Zrotation
									JOINT LeftHandPinky2
									{
										OFFSET 2.861649 0.000000 0.000000
										CHANNELS 3 Xrotation Yrotation Zrotation
										JOINT LeftHandPinky3
										{
											OFFSET 2.863380 0.000000 0.000000
											CHANNELS 3 Xrotation Yrotation Zrotation
											End Site
											{
												OFFSET -0.843597 2.711159 0.369971
											}
										}
									}
								}
							}
							JOINT LSleeve
							{
								OFFSET 6.676277 -0.344902 -1.011730
								CHANNELS 3 Xrotation Yrotation Zrotation
								End Site
								{
									OFFSET 0.000000 14.885353 0.000000
								}
							}
						}
					}
				}
				JOINT RightShoulder
				{
					OFFSET -6.197800 13.665199 -4.064700
					CHANNELS 3 Xrotation Yrotation Zrotation
					JOINT RightArm
					{
						OFFSET -7.778100 -0.187103 -1.709300
						CHANNELS 3 Xrotation Yrotation Zrotation
						JOINT RightForeArm
						{
							OFFSET -22.049376 0.000000 0.000000
							CHANNELS 3 Xrotation Yrotation Zrotation
							JOINT RightHand
							{
								OFFSET -23.009392 0.000000 0.000000
								CHANNELS 3 Xrotation Yrotation Zrotation
								JOINT RightHandThumb1
								{
									OFFSET -3.507191 -2.063065 3.133727
									CHANNELS 3 Xrotation Yrotation Zrotation
									JOINT RightHandThumb2
									{
										OFFSET -3.101337 -1.790558 1.790558
										CHANNELS 3 Xrotation Yrotation Zrotation
										JOINT RightHandThumb3
										{
											OFFSET -3.058640 -1.765907 1.765906
											CHANNELS 3 Xrotation Yrotation Zrotation
											End Site
											{
												OFFSET 0.415260 3.926476 -0.049563
											}
										}
									}
								}
								JOINT RightHandIndex1
								{
									OFFSET -11.334419 -0.901459 3.706815
									CHANNELS 3 Xrotation Yrotation Zrotation
									JOINT RightHandIndex2
									{
										OFFSET -3.283112 0.000000 0.000000
										CHANNELS 3 Xrotation Yrotation Zrotation
										JOINT RightHandIndex3
										{
											OFFSET -3.323853 0.000000 0.000000
											CHANNELS 3 Xrotation Yrotation Zrotation
											End Site
											{
												OFFSET 1.135597 3.097809 0.402452
											}
										}
									}
								}
								JOINT RightHandMiddle1
								{
									OFFSET -11.335861 0.000000 0.000000
									CHANNELS 3 Xrotation Yrotation Zrotation
									JOINT RightHandMiddle2
									{
										OFFSET -3.410492 0.000000 0.000000
										CHANNELS 3 Xrotation Yrotation Zrotation
										JOINT RightHandMiddle3
										{
											OFFSET -3.312172 0.000000 0.000000
											CHANNELS 3 Xrotation Yrotation Zrotation
											End Site
											{
												OFFSET 1.150200 3.080154 0.400270
											}
										}
									}
								}
								JOINT RightHandRing1
								{
									OFFSET -11.514786 -0.013176 -3.003090
									CHANNELS 3 Xrotation Yrotation Zrotation
									JOINT RightHandRing2
									{
										OFFSET -3.053307 0.000000 0.000000
										CHANNELS 3 Xrotation Yrotation Zrotation
										JOINT RightHandRing3
										{
											OFFSET -3.295807 0.000000 0.000000
											CHANNELS 3 Xrotation Yrotation Zrotation
											End Site
											{
												OFFSET 1.281006 3.013344 0.375733
											}
										}
									}
								}
								JOINT RightHandPinky1
								{
									OFFSET -10.518692 -0.960396 -5.730441
									CHANNELS 3 Xrotation Yrotation Zrotation
									JOINT RightHandPinky2
									{
										OFFSET -2.861649 0.000000 0.000000
										CHANNELS 3 Xrotation Yrotation Zrotation
										JOINT RightHandPinky3
										{
											OFFSET -2.863380 0.000000 0.000000
											CHANNELS 3 Xrotation Yrotation Zrotation
											End Site
											{
												OFFSET 0.843597 2.711159 0.369971
											}
										}
									}
								}
							}
							JOINT RSleeve
							{
								OFFSET -6.676277 -0.344902 -1.011730
								CHANNELS 3 Xrotation Yrotation Zrotation
								End Site
								{
									OFFSET 0.000000 14.885353 0.000000
								}
							}
						}
					}
				}
				JOINT Backpack
				{
					OFFSET 0.000000 -2.471497 36.677502
					CHANNELS 3 Xrotation Yrotation Zrotation
					End Site
					{
						OFFSET 0.000000 20.427315 0.000000
					}
				}
				JOINT Hood
				{
					OFFSET 0.000000 18.754097 -10.431000
					CHANNELS 3 Xrotation Yrotation Zrotation
					JOINT Hood1
					{
						OFFSET 0.000000 -5.011002 -7.685901
						CHANNELS 3 Xrotation Yrotation Zrotation
						End Site
						{
							OFFSET 0.000000 9.175140 0.000000
						}
					}
				}
				JOINT LHoodieString
				{
					OFFSET 5.250500 16.397697 3.089900
					CHANNELS 3 Xrotation Yrotation Zrotation
					JOINT LHoodieString1
					{
						OFFSET 0.257700 -6.364304 3.694600
						CHANNELS 3 Xrotation Yrotation Zrotation
						JOINT LHoodieString2
						{
							OFFSET 0.000000 -9.643799 2.679100
							CHANNELS 3 Xrotation Yrotation Zrotation
							End Site
							{
								OFFSET 0.000000 10.009018 0.000000
							}
						}
					}
				}
				JOINT RHoodieString
				{
					OFFSET -5.250500 16.397697 3.089900
					CHANNELS 3 Xrotation Yrotation Zrotation
					JOINT RHoodieString1
					{
						OFFSET -0.257700 -6.364304 3.694600
						CHANNELS 3 Xrotation Yrotation Zrotation
						JOINT RHoodieString2
						{
							OFFSET 0.000000 -9.643799 2.679100
							CHANNELS 3 Xrotation Yrotation Zrotation
							End Site
							{
								OFFSET 0.000000 10.009018 0.000000
							}
						}
					}
				}
			}
			JOINT LBackpack_Strap
			{
				OFFSET 15.223200 -7.719803 -6.610900
				CHANNELS 3 Xrotation Yrotation Zrotation
				End Site
				{
					OFFSET 0.000000 16.040596 0.000000
				}
			}
			JOINT RBackpack_Strap
			{
				OFFSET -15.223000 -7.719803 -6.610900
				CHANNELS 3 Xrotation Yrotation Zrotation
				End Site
				{
					OFFSET 0.000000 16.040596 0.000000
				}
			}
		}
	}
	JOINT BoyFacialAnim_Joint
	{
		OFFSET 1.000000 -82.208099 -1.550900
		CHANNELS 3 Xrotation Yrotation Zrotation
		End Site
		{
			OFFSET 0.000000 30.012791 0.000000
		}
	}
}
MOTION
Frames: 4
Frame Time: 0.033333
-14.503725 69.768677 6.584960 -5.607219 -11.346960 -5.218334 -0.000000 -0.000000 0.000000 -39.973931 -12.732625 15.761483 56.501237 -4.909487 2.540647 -9.634638 2.547832 -17.586475 -0.000000 -0.000000 -0.000000 -0.000000 -0.000000 0.000000 0.000000 -0.000001 0.000002 1.177020 -25.135955 -4.598585 52.926644 -12.563156 -7.548656 -40.531487 -6.834097 12.178857 0.000001 -0.000003 0.000001 0.000001 -0.000003 0.000001 -0.000001 0.000001 -0.000001 -0.303596 18.717201 1.579268 4.964739 17.409824 -4.300801 4.890740 17.482323 -3.989548 5.542173 -7.196669 8.022526 -0.181046 -34.135670 15.446179 -0.000001 -0.000000 0.000000 -0.000001 -0.000000 0.000000 -0.000001 -0.000000 0.000000 3.422883 -12.225457 -4.358716 44.585238 -25.400645 -62.922763 0.000004 -65.131536 0.000023 -70.773963 -13.670948 38.118429 10.468178 7.147561 9.921589 -8.969330 17.057588 -9.772690 0.000001 -0.000001 -0.000001 -2.660810 -2.943961 -29.720738 1.684005 4.516201 -40.882278 -0.000001 -0.000001 -0.000000 -0.401422 1.166913 -30.230714 1.121976 3.772284 -33.117053 0.000002 -0.000001 -0.000002 -0.001942 2.019708 -32.727671 1.417743 4.189853 -37.375471 0.000001 0.000000 0.000001 5.679492 9.794490 -36.887898 1.802373 0.561628 -42.532172 -0.000000 -0.000001 0.000003 -0.000001 0.000001 0.000002 9.929801 27.857710 -6.494114 -21.148986 70.298650 17.386298 -0.002223 89.080673 0.002062 7.024738 8.034223 -13.092238 12.368845 -4.624735 21.260531 17.294816 -25.325394 -0.358874 0.000002 0.000001 0.000001 5.274466 -6.773204 70.945120 4.981912 -6.665519 73.522670 -0.000000 0.000001 0.000002 4.890836 -6.638092 72.821667 6.267741 -6.914990 84.365779 0.000001 0.000000 -0.000002 4.122096 -6.402312 72.850695 6.263222 -6.914551 84.328350 -0.000002 0.000000 0.000004 2.534082 -5.717425 68.041306 6.267333 -6.914973 84.362358 -0.000004 0.000001 0.000000 -0.000001 0.000003 0.000001 0.000000 0.000000 0.000001 0.000000 0.000000 0.000001 0.000000 0.000000 0.000001 0.000000 0.000000 0.000001 0.000000 0.000000 0.000001 0.000000 0.000002 0.000000 0.000000 0.000000 0.000001 0.000000 0.000000 0.000001 0.000000 0.000002 0.000000 -0.000000 0.000000 0.000001 -0.000000 0.000000 0.000001 -0.000000 -0.000000 0.000000 
-12.955898 72.964836 6.012083 -2.550696 -32.633083 -4.861500 0.000000 -0.000003 0.000000 -31.598876 -5.965014 23.962686 47.812936 7.420309 -0.273408 -7.819359 2.633256 -20.608125 0.000000 0.000001 -0.000000 0.000000 0.000001 -0.000000 0.000000 0.000000 0.000003 -9.382672 -16.219824 -9.029645 50.110820 -2.132110 -8.762268 -32.766262 -3.387868 10.293681 -0.000000 -0.000001 0.000000 -0.000000 -0.000001 0.000000 -0.000000 -0.000003 0.000004 -1.201046 15.982817 2.440204 2.666373 14.968356 -3.669802 2.719902 14.987071 -3.540278 6.538629 -4.682170 6.171617 -2.087449 -20.951182 7.537860 0.000000 0.000001 -0.000000 0.000000 0.000001 -0.000000 0.000000 0.000001 -0.000000 3.462234 -12.512230 -4.945064 50.262652 -25.255374 -62.546590 -0.000026 -65.956186 -0.000021 -69.804390 -9.345780 36.174447 10.468183 7.147562 9.921590 -8.969337 17.057586 -9.772685 -0.000001 -0.000001 0.000001 -2.660806 -2.943961 -29.720738 1.684001 4.516197 -40.882278 -0.000000 0.000003 -0.000003 -0.401423 1.166912 -30.230721 1.121977 3.772287 -33.117053 0.000001 0.000003 0.000003 -0.001941 2.019709 -32.727671 1.417746 4.189853 -37.375475 0.000001 0.000001 -0.000002 5.679494 9.794490 -36.887898 1.802371 0.561628 -42.532165 -0.000000 0.000002 -0.000003 -0.000001 0.000001 0.000001 8.867699 24.893900 -7.036283 -16.730248 58.710011 16.157810 -0.001755 94.421519 0.001764 8.059065 4.434706 -5.730239 12.368842 -4.624732 21.260530 17.294814 -25.325392 -0.358874 0.000000 0.000000 0.000000 5.274466 -6.773201 70.945127 4.981912 -6.665521 73.522656 -0.000001 -0.000001 -0.000002 4.890836 -6.638089 72.821674 6.267738 -6.914992 84.365779 0.000002 0.000000 0.000003 4.122095 -6.402310 72.850702 6.263222 -6.914552 84.328350 -0.000001 0.000002 0.000001 2.534083 -5.717422 68.041306 6.267335 -6.914974 84.362358 -0.000001 -0.000001 -0.000000 0.000000 -0.000000 -0.000001 0.000000 -0.000000 0.000000 0.000000 -0.000000 0.000000 0.000000 -0.000000 0.000000 0.000000 -0.000000 0.000000 0.000000 -0.000000 0.000001 0.000000 -0.000000 0.000000 0.000000 -0.000000 0.000000 0.000000 -0.000000 0.000001 0.000000 -0.000000 0.000000 0.000000 0.000000 0.000000 0.000000 0.000000 0.000000 0.000000 -0.000003 0.000000 
-11.250381 75.191849 5.306250 2.068733 -51.770119 -2.613827 0.000000 0.000001 -0.000000 -25.333503 -0.659326 28.264673 40.902957 9.788328 -3.005817 -5.300521 13.651774 -21.609672 0.000000 -0.000002 0.000000 0.000000 -0.000002 0.000000 0.000000 0.000002 0.000000 -19.445434 -9.737536 -10.091999 46.738360 8.406428 -8.986881 -22.601171 -0.109107 11.644015 0.000001 -0.000002 -0.000000 0.000001 -0.000002 -0.000000 -0.000001 0.000002 0.000002 -0.780735 12.502587 2.312751 1.773009 11.791325 -2.365083 1.861600 11.783701 -2.356128 5.555229 -1.621430 4.238049 -6.459371 -4.350107 0.452874 0.000000 -0.000002 -0.000000 0.000000 -0.000002 -0.000000 0.000000 -0.000002 -0.000000 3.437166 -12.438118 -5.230002 54.277621 -21.952640 -60.980325 0.000035 -67.820930 0.000038 -63.037216 1.263331 38.839089 10.468178 7.147562 9.921588 -8.969332 17.057586 -9.772689 0.000001 -0.000002 -0.000000 -2.660811 -2.943962 -29.720738 1.684004 4.516200 -40.882278 -0.000001 -0.000000 -0.000004 -0.401422 1.166913 -30.230718 1.121979 3.772286 -33.117050 0.000002 -0.000001 0.000000 -0.001942 2.019708 -32.727671 1.417741 4.189852 -37.375471 0.000000 -0.000000 -0.000002 5.679492 9.794490 -36.887898 1.802372 0.561628 -42.532165 0.000000 0.000001 -0.000000 -0.000001 0.000001 -0.000001 8.389299 23.150349 -9.066321 -14.618688 47.320339 14.177853 -0.000176 85.845916 0.000178 12.734527 -0.564521 -5.289875 12.368843 -4.624730 21.260533 17.294814 -25.325395 -0.358873 -0.000003 0.000001 -0.000000 5.274468 -6.773204 70.945120 4.981911 -6.665520 73.522663 -0.000000 -0.000000 0.000002 4.890837 -6.638085 72.821667 6.267739 -6.914995 84.365779 -0.000000 0.000000 -0.000000 4.122095 -6.402312 72.850695 6.263222 -6.914555 84.328350 0.000000 -0.000003 0.000002 2.534082 -5.717419 68.041306 6.267335 -6.914978 84.362358 -0.000001 0.000001 -0.000001 0.000000 0.000002 0.000000 -0.000000 -0.000000 -0.000000 -0.000000 -0.000000 -0.000000 -0.000000 -0.000000 -0.000000 -0.000000 -0.000000 -0.000000 -0.000000 -0.000000 0.000000 0.000000 0.000002 0.000000 -0.000000 -0.000000 -0.000000 -0.000000 -0.000000 0.000000 0.000000 0.000002 0.000000 0.000000 0.000001 -0.000000 0.000000 0.000001 -0.000000 0.000000 0.000001 -0.000000 
-9.398458 76.163666 4.334650 7.275389 -64.072632 0.995710 0.000000 -0.000001 0.000001 -22.772525 1.575492 30.010653 38.050007 10.093340 -4.320761 -2.827244 24.052617 -22.358901 -0.000000 -0.000000 -0.000000 -0.000000 -0.000000 -0.000000 -0.000000 -0.000001 0.000001 -26.836006 -9.545173 -8.946256 42.842232 8.347681 -10.293863 -14.370727 9.245657 15.812878 0.000000 0.000000 0.000000 0.000000 0.000000 0.000000 0.000001 -0.000000 0.000001 0.604683 8.798809 1.467410 2.324035 8.353293 -1.197076 2.395823 8.335283 -1.209141 3.345818 1.322073 3.002365 -6.967495 10.971630 -2.522389 -0.000000 -0.000001 -0.000000 -0.000000 -0.000001 -0.000000 -0.000000 -0.000001 -0.000000 3.652188 -13.048246 -2.854583 58.676653 -21.077535 -54.676098 -0.000065 -67.530511 -0.000057 -60.996881 15.449835 43.475848 10.468181 7.147561 9.921590 -8.969327 17.057586 -9.772689 0.000000 -0.000002 0.000001 -2.660810 -2.943961 -29.720735 1.684001 4.516200 -40.882285 -0.000005 -0.000000 0.000002 -0.401420 1.166909 -30.230718 1.121981 3.772284 -33.117053 0.000002 0.000002 0.000004 -0.001942 2.019711 -32.727668 1.417741 4.189851 -37.375468 -0.000003 -0.000000 -0.000002 5.679491 9.794486 -36.887898 1.802369 0.561630 -42.532172 -0.000004 0.000004 0.000000 -0.000000 0.000000 0.000000 7.353152 20.078543 -10.362305 -11.460339 45.558441 9.615448 -0.000005 62.206679 0.000011 -6.126851 -7.647666 -12.713332 12.368843 -4.624732 21.260533 17.294819 -25.325401 -0.358873 -0.000004 0.000004 0.000001 5.274465 -6.773202 70.945120 4.981914 -6.665520 73.522656 -0.000001 -0.000000 0.000002 4.890835 -6.638089 72.821667 6.267740 -6.914992 84.365779 0.000001 -0.000000 0.000005 4.122095 -6.402313 72.850702 6.263219 -6.914554 84.328357 0.000000 0.000000 -0.000001 2.534082 -5.717424 68.041299 6.267335 -6.914975 84.362358 0.000000 0.000002 -0.000003 -0.000000 -0.000000 -0.000001 0.000001 -0.000003 0.000000 0.000001 -0.000003 0.000000 0.000001 -0.000003 0.000000 0.000001 -0.000003 0.000000 0.000001 -0.000003 0.000001 -0.000000 -0.000003 0.000001 0.000001 -0.000003 0.000000 0.000001 -0.000003 0.000001 -0.000000 -0.000003 0.000001 -0.000000 -0.000001 -0.000000 -0.000000 -0.000001 -0.000000 0.000000 -0.000001 0.000001 
